{
  "episode_id": "PD-2026-008-carpenter",
  "render": "artifact://episodes/PD-2026-008-carpenter/08_edit/carpenter_review_v001.mp4",
  "media_render": "H:\\pd-media\\episodes\\PD-2026-008-carpenter\\08_edit\\carpenter_review_v001.mp4",
  "sha256": "c858b5e13d23b4569261862b217bae64d69afcfbb16fb6dea0b85df0c5de2c38",
  "duration_seconds": 678.0,
  "target_duration_seconds": 678.0,
  "video": "Remotion CarpenterPremium, synthetic-symbolic visuals, 1920x1080 H.264",
  "audio": "ElevenLabs narration slowed to ~669s, library music, ambience, SFX",
  "captions": "burned SRT from locked script text, scaled to slowed narration",
  "paid_generation_performed": true,
  "estimated_elevenlabs_cost_usd": 2.82,
  "external_upload_performed": false,
  "publish_performed": false,
  "synthetic_content_disclosure_required": true,
  "accuracy_checks": {
    "vote_5_4": true,
    "no_incorrect_vote_count": true,
    "points_12898": true,
    "symbolic_reconstruction_label": true
  },
  "audio_probe_tail": "0:05:28.83 bitrate=N/A speed=63.8x elapsed=0:00:05.15    \nframe=10992 fps=1937 q=-0.0 size=N/A time=00:06:06.40 bitrate=N/A speed=64.6x elapsed=0:00:05.67    \nframe=12092 fps=1949 q=-0.0 size=N/A time=00:06:43.06 bitrate=N/A speed=  65x elapsed=0:00:06.20    \nframe=13253 fps=1971 q=-0.0 size=N/A time=00:07:21.76 bitrate=N/A speed=65.7x elapsed=0:00:06.72    \nframe=14402 fps=1989 q=-0.0 size=N/A time=00:08:00.06 bitrate=N/A speed=66.3x elapsed=0:00:07.24    \nframe=15560 fps=2004 q=-0.0 size=N/A time=00:08:38.66 bitrate=N/A speed=66.8x elapsed=0:00:07.76    \nframe=16670 fps=2012 q=-0.0 size=N/A time=00:09:15.66 bitrate=N/A speed=67.1x elapsed=0:00:08.28    \nframe=17776 fps=2023 q=-0.0 size=N/A time=00:09:52.53 bitrate=N/A speed=67.4x elapsed=0:00:08.78    \nframe=18718 fps=2011 q=-0.0 size=N/A time=00:10:23.93 bitrate=N/A speed=  67x elapsed=0:00:09.30    \nframe=19446 fps=1978 q=-0.0 size=N/A time=00:10:48.20 bitrate=N/A speed=65.9x elapsed=0:00:09.82    \nframe=20169 fps=1950 q=-0.0 size=N/A time=00:11:12.30 bitrate=N/A speed=  65x elapsed=0:00:10.34    \n[Parsed_volumedetect_0 @ 00000166a2fca200] n_samples: 29900800\n[Parsed_volumedetect_0 @ 00000166a2fca200] mean_volume: -22.4 dB\n[Parsed_volumedetect_0 @ 00000166a2fca200] max_volume: -2.0 dB\n[Parsed_volumedetect_0 @ 00000166a2fca200] histogram_2db: 22\n[Parsed_volumedetect_0 @ 00000166a2fca200] histogram_3db: 71\n[Parsed_volumedetect_0 @ 00000166a2fca200] histogram_4db: 271\n[Parsed_volumedetect_0 @ 00000166a2fca200] histogram_5db: 896\n[Parsed_volumedetect_0 @ 00000166a2fca200] histogram_6db: 2904\n[Parsed_volumedetect_0 @ 00000166a2fca200] histogram_7db: 7132\n[Parsed_volumedetect_0 @ 00000166a2fca200] histogram_8db: 16948\n[Parsed_volumedetect_0 @ 00000166a2fca200] histogram_9db: 36910\n[out#0/null @ 00000166a0c34b40] video:8422KiB audio:58400KiB subtitle:0KiB other streams:0KiB global headers:0KiB muxing overhead: unknown\nframe=20340 fps=1952 q=-0.0 Lsize=N/A time=00:11:18.00 bitrate=N/A speed=65.1x elapsed=0:00:10.41    \n",
  "known_limitations": [
    "Only the first 8 local SDXL candidates completed before A1111 became occupied by another local generation job; the cut now uses the two accepted map candidates plus Remotion-built device graphics.",
    "Final publish master should continue SDXL candidate generation and visual selection once the shared local A1111 queue is free.",
    "Captions are chunk-time scaled, not forced word-aligned."
  ]
}
